<?xml version="1.0" encoding="UTF-8"?>
<svg width="1200pt" height="1200pt" version="1.1" viewBox="0 0 1200 1200" xmlns="http://www.w3.org/2000/svg">
 <g>
  <path d="m874.27 522.31c-1.0039-0.27344-2.0312-0.44531-3.0625-0.62109-0.007813-0.23438-0.015626-0.46094-0.023438-0.6875-0.33984-10.391-0.6875-21.129-0.6875-31.891 0-33.145-6.6641-64.078-18.895-91.871 0.72656-1.2695 1.2539-2.668 1.2539-4.2383 0-4.3359-3.2109-7.7695-7.3594-8.4414-38.426-73.906-118.1-122.64-217.31-125.84v-0.22656l-7.7539 0.039062-2.0781-0.039062-5.668 0.089844v0.13672c-99.195 3.2031-178.81 52.07-216.96 126.11-3.4609 1.1484-5.9844 4.3086-5.9844 8.1602 0 1.0742 0.25781 2.0781 0.61328 3.0234-12.395 27.887-19.164 58.953-19.164 92.281 0 11.176-0.44531 22.383-0.89062 33.258-1.2461 0.1875-2.4805 0.41406-3.6875 0.75-30.59 8.3867-42.48 58.953-27.07 115.11 11.387 41.496 34.543 73.426 58.523 83.137 2.3594 15.566 4.5273 31.551 6.3242 47.438 0.62891 5.5547 1.875 10.934 3.4453 16.211-0.4375 1.0352-0.67969 2.1758-0.67969 3.3711 0 3.2734 1.8828 6.0156 4.5508 7.5117 17.133 40.598 58.727 72.078 88.027 94.207 0.12891 0.097656 0.25 0.1875 0.37891 0.28906 0.81641 3.9609 4.1562 6.9961 8.3672 6.9961 0.23438 0 0.42969-0.11328 0.65625-0.13672 5.4258 4.1641 10.195 7.957 13.785 11.27 25.816 23.746 48.168 32.262 89.785 33.582v0.20312l7.7148-0.03125 2.1172 0.03125 5.668-0.066406v-0.13672c41.617-1.3281 63.973-9.8477 89.785-33.582 3.5898-3.3008 8.3516-7.0898 13.77-11.254 0.21094 0.015625 0.39453 0.12109 0.61328 0.12109 4.1875 0 7.5117-3.0078 8.3438-6.9375 0.16016-0.12109 0.30078-0.22656 0.46094-0.34766 29.125-21.992 70.395-53.211 87.73-93.438 3.75-0.97656 6.5586-4.2305 6.5586-8.2812 0-1.9805-0.77734-3.7188-1.8906-5.1758 1.3086-4.6992 2.3789-9.4766 2.9414-14.402 1.7969-15.887 3.9688-31.867 6.3164-47.438 23.973-9.7188 47.125-41.641 58.516-83.145 15.398-56.145 3.5117-106.71-27.078-115.1zm-523.82 112.11c-13.27-48.359-4.5039-94.699 19.141-101.18 0.074219-0.023437 0.16016-0.007813 0.23438-0.03125-0.88281 24.219-1.0117 47.035 4.4727 67 0.78516 2.8398 1.6484 6.2266 2.5469 9.8789-1.0664 1.4453-1.8125 3.1367-1.8125 5.0625 0 3.3945 1.9961 6.2578 4.8281 7.6914 4.9258 21.703 10.801 51.426 16.027 83.93-18.23-11.363-36.293-39.051-45.438-72.348zm474.79 132.3c-0.33984 3.0078-0.86328 5.9688-1.5352 8.9023l-1.125-1.5508-2.4414 1.7773 2.5234 3.4609c-0.082031 0.29297-0.16797 0.58984-0.25781 0.875-2.5625 1.5117-4.3672 4.1875-4.3672 7.3828 0 0.12109 0.058594 0.22656 0.066407 0.33984l-6.2109 1.3594 0.64844 2.9531 6.0742-1.3281c-15.922 37.422-55.434 67.547-83.582 88.797-0.66406-0.21875-1.3594-0.37109-2.0859-0.42188l-0.58984-5.5469-3 0.31641 0.59766 5.5938c-3.6211 1.0586-6.3164 4.2617-6.3164 8.2305 0 0.16016 0.082031 0.29297 0.089844 0.45312-5.1836 4.0039-9.793 7.707-13.43 11.047-24.84 22.844-45.375 30.031-87.867 30.727l-1.9961 0.03125-1.9961-0.019532c-42.492-0.69531-63.027-7.875-87.867-30.727-3.5898-3.3008-8.1328-6.9453-13.227-10.891h0.023438l-0.62109-2.9609-0.058594 0.007813c-1.0352-3.6406-4.2461-6.3633-8.2305-6.3633-0.9375 0-1.7969 0.25781-2.6445 0.52734-27.758-20.965-66.617-50.543-82.945-87.246 0.34766-0.5 0.76953-0.95312 1.0039-1.5273l4.4375 0.98828 0.65625-2.9531-4.4961-1.0039c0-0.12891 0.074219-0.24219 0.074219-0.37109 0-3.9688-2.6992-7.1719-6.3242-8.2227-1.1484-4.1406-2.1016-8.3359-2.5859-12.637-6.2344-55.008-16.777-111.48-24.801-146.78 0.94531-1.3906 1.625-2.9766 1.625-4.7852 0-3.2656-1.8672-6-4.5273-7.4961-0.95312-3.8828-1.875-7.4531-2.6914-10.453-5.8203-21.16-4.7695-46.906-3.6562-74.16 0.46094-11.305 0.9375-22.988 0.9375-34.738 0-31.016 6.168-60.004 17.523-86.09l2.4258-0.70312-0.22656-0.77734c1.7695-0.875 3.1953-2.2969 4.0273-4.082l5.2148 2.5859 1.3438-2.707-5.8281-2.8867c0.015625-0.22656 0.13672-0.42188 0.13672-0.64844 0-1.0195-0.25781-1.9727-0.58203-2.8789l6.2734-3.5742-1.4961-2.6289-3.1367 1.7852c37.969-69.293 114.97-114.35 210.24-115.77l1.2852-0.039063 2.7148 0.039063c93.922 1.3984 170.2 45.07 208.96 112.57l-0.75391-0.40625-1.4297 2.668 4.8359 2.6016c0.62109 1.1484 1.2461 2.2891 1.8438 3.4453-0.1875 0.71875-0.44531 1.4141-0.44531 2.1914 0 0.82422 0.25781 1.5703 0.46875 2.3281l-4.9648 2.418 1.3242 2.7148 4.9727-2.418c0.79297 1.0898 1.7695 1.9961 2.9766 2.6133l-0.44531 1.4453 1.7773 0.55078c11.418 26.191 17.617 55.305 17.617 86.461 0 10.941 0.35547 21.781 0.69531 32.262 0.90625 27.797 1.7617 54.047-4.2305 75.836-0.76953 2.8125-1.625 6.1367-2.5078 9.7188-3.6289 1.0508-6.332 4.2539-6.332 8.2305 0 2.5469 1.1406 4.793 2.8867 6.3867-7.9961 35.391-18.312 90.988-24.449 145.17zm65.172-132.3c-9.1367 33.305-27.207 60.992-45.441 72.352 5.3281-33.137 11.328-63.418 16.316-85.223 1.7617-1.5938 2.9102-3.8398 2.9102-6.4023 0-1.1406-0.25-2.2148-0.64844-3.2109 1.082-4.4297 2.0938-8.3945 3.0078-11.73 5.5078-20.043 5.6602-42.766 5.0039-66.859 23.418 6.7969 32.062 52.918 18.852 101.07z"/>
  <path d="m620.44 593.68c-2.168 0-4.0898 0.86719-5.6055 2.1836l-3.0391-2.4805-1.9102 2.3438 3.0625 2.5c-0.70312 1.2539-1.2109 2.6289-1.2109 4.1641 0 4.8047 3.9062 8.707 8.707 8.707 4.8125 0 8.7148-3.8984 8.7148-8.707-0.007812-4.8047-3.9062-8.7109-8.7188-8.7109z"/>
  <path d="m741.05 652.81c0 4.8047-3.8945 8.7031-8.7031 8.7031s-8.707-3.8984-8.707-8.7031c0-4.8086 3.8984-8.707 8.707-8.707s8.7031 3.8984 8.7031 8.707"/>
  <path d="m714.7 518.1c0 1.5508 0.51563 2.9258 1.2148 4.1797l-2.8711 2.3516 1.9102 2.3438 2.8477-2.3359c1.5273 1.3086 3.4375 2.1758 5.6016 2.1758 4.8125 0 8.707-3.8984 8.707-8.707 0-4.8125-3.8906-8.707-8.707-8.707-4.8008-0.015626-8.7031 3.8867-8.7031 8.6992z"/>
  <path d="m525.87 518.1c0 4.8086-3.8984 8.707-8.707 8.707s-8.707-3.8984-8.707-8.707 3.8984-8.707 8.707-8.707 8.707 3.8984 8.707 8.707"/>
  <path d="m629.33 731.07c0 4.8125-3.9023 8.7109-8.7148 8.7109s-8.7148-3.8984-8.7148-8.7109 3.9023-8.7148 8.7148-8.7148 8.7148 3.9023 8.7148 8.7148"/>
  <path d="m620.62 856.61c-2.7812 0-5.1445 1.3828-6.7422 3.4102l-2.6523-1.4141-1.4219 2.668 2.6367 1.4062c-0.28125 0.84766-0.53516 1.707-0.53516 2.6445 0 4.8047 3.8984 8.707 8.7148 8.707 4.8125 0 8.6992-3.8984 8.6992-8.707 0-4.8242-3.8867-8.7148-8.6992-8.7148z"/>
  <path d="m723.64 801.44c-4.8125 0-8.707 3.8984-8.707 8.7148 0 1.0117 0.25781 1.957 0.58203 2.8633l-2.2539 1.2031 1.4219 2.668 2.3438-1.2461c1.5625 1.8906 3.832 3.1523 6.4688 3.1953l0.28125 2.6133 3-0.31641-0.30078-2.8398c3.4023-1.1875 5.8711-4.3359 5.8711-8.1406 0.007812-4.8164-3.8867-8.7148-8.707-8.7148z"/>
  <path d="m525.88 810.15c0 4.8125-3.9023 8.7109-8.7148 8.7109s-8.7148-3.8984-8.7148-8.7109 3.9023-8.7148 8.7148-8.7148 8.7148 3.9023 8.7148 8.7148"/>
  <path d="m814.32 518.1c0 4.8086-3.8945 8.707-8.7031 8.707-4.8086 0-8.707-3.8984-8.707-8.707s3.8984-8.707 8.707-8.707c4.8086 0 8.7031 3.8984 8.7031 8.707"/>
  <path d="m443.27 518.1c0 4.8086-3.8984 8.707-8.7031 8.707-4.8086 0-8.707-3.8984-8.707-8.707s3.8984-8.707 8.707-8.707c4.8047 0 8.7031 3.8984 8.7031 8.707"/>
  <path d="m667.43 698.94c0-1.1562-0.25-2.2539-0.65625-3.2578l2.3281-1.457-1.6094-2.5625-2.3672 1.4805c-1.5938-1.7617-3.8398-2.9102-6.4023-2.9102-0.60547 0-1.125 0.22656-1.6914 0.33984l-1.7617-4.4453-2.8125 1.1094 1.7617 4.4297c-2.4727 1.543-4.2031 4.1484-4.2031 7.2695 0 4.8047 3.8984 8.7148 8.707 8.7148 4.8086 0 8.707-3.9062 8.707-8.7109z"/>
  <path d="m590.89 700.45h7.3828v-3.0234h-7.3828c-0.44531-2.4648-1.8594-4.5039-3.9141-5.7734l1.6914-4.3164-2.8125-1.1016-1.6992 4.332c-0.55859-0.11328-1.082-0.33203-1.6719-0.33203-4.8125 0-8.707 3.8984-8.707 8.707 0 4.8047 3.8906 8.7148 8.707 8.7148 4.2812-0.007812 7.668-3.1523 8.4062-7.207z"/>
  <path d="m517.16 334.11c4.2695 0 7.6641-3.1367 8.3945-7.1953h5.9492v-3.0234h-5.9492c-0.74219-4.0586-4.125-7.1953-8.3945-7.1953-4.8125 0-8.707 3.8984-8.707 8.707 0 4.8047 3.8945 8.707 8.707 8.707z"/>
  <path d="m720.2 333.39-0.36328-0.10547-2.0625 7.2695 2.9102 0.82422 2.0625-7.2695-2.2461-0.63672c0.97656 0.37891 2.0234 0.63672 3.1445 0.63672 4.8125 0 8.707-3.8984 8.707-8.707 0-4.8125-3.8906-8.707-8.707-8.707-4.8125 0-8.707 3.8984-8.707 8.707-0.007812 3.582 2.168 6.6484 5.2617 7.9883z"/>
  <path d="m690.82 471.82c0-4.8125-3.8906-8.707-8.707-8.707-4.2773 0-7.6641 3.1367-8.4023 7.1953h-6.8398v3.0234h6.8398c0.74219 4.0586 4.125 7.1953 8.4023 7.1953 4.8164 0.007812 8.707-3.8984 8.707-8.707z"/>
  <path d="m569.77 471.82c0 4.8086-3.8984 8.707-8.707 8.707s-8.7031-3.8984-8.7031-8.707c0-4.8086 3.8945-8.7031 8.7031-8.7031s8.707 3.8945 8.707 8.7031"/>
  <path d="m586.46 576.6 1.9141-2.3398 5.8516 4.7812-1.9141 2.3398z"/>
  <path d="m545.48 543.14-5.8555-4.7812 1.9102-2.3398 5.8555 4.7812z"/>
  <path d="m559.09 550.38-1.9141 2.3398-5.8516-4.7812 1.9141-2.3398z"/>
  <path d="m564.96 555.15 5.8555 4.7773-1.9102 2.3438-5.8555-4.7773z"/>
  <path d="m574.75 567.05 1.9141-2.3398 5.8516 4.7812-1.9141 2.3398z"/>
  <path d="m533.76 533.6-5.8555-4.7773 1.9102-2.3438 5.8555 4.7773z"/>
  <path d="m604.01 590.95-5.8555-4.7773 1.9102-2.3438 5.8555 4.7773z"/>
  <path d="m666.26 562.94 5.8438-4.7891 1.9141 2.3398-5.8438 4.7891z"/>
  <path d="m633.08 593.97-1.918-2.3359 5.8438-4.793 1.918 2.3359z"/>
  <path d="m648.71 577.29 1.9141 2.3398-5.8516 4.7812-1.9141-2.3398z"/>
  <path d="m709.09 531.75-5.8477 4.7891-1.9141-2.3398 5.8477-4.7891z"/>
  <path d="m660.41 567.71 1.9141 2.3398-5.8516 4.7812-1.9141-2.3398z"/>
  <path d="m691.57 546.11-1.9141-2.3398 5.8516-4.7812 1.9141 2.3398z"/>
  <path d="m677.95 553.34 5.8477-4.7852 1.9141 2.3398-5.8477 4.7852z"/>
  <path d="m662.41 619.64 6.8906 3.1055-1.2422 2.7539-6.8906-3.1055z"/>
  <path d="m681.79 631.71-6.8906-3.1055 1.2422-2.7578 6.8906 3.1055z"/>
  <path d="m648.63 613.43 6.8906 3.1055-1.2422 2.7578-6.8906-3.1055z"/>
  <path d="m702.52 641.02 1.2422-2.7578 6.8906 3.1055-1.2422 2.7578z"/>
  <path d="m641.73 610.33-1.2383 2.7578-6.8906-3.1016 1.2383-2.7578z"/>
  <path d="m689.97 632.06 6.8906 3.1055-1.2422 2.7578-6.8906-3.1055z"/>
  <path d="m717.53 644.47 6.8906 3.1055-1.2422 2.7539-6.8906-3.1055z"/>
  <path d="m796.93 631.46 0.88672 2.8906-7.2266 2.2109-0.88672-2.8906z"/>
  <path d="m812.27 629.9-7.2266 2.2109-0.88281-2.8906 7.2266-2.2109z"/>
  <path d="m819.51 627.74-0.88672-2.8906 7.2266-2.2109 0.88672 2.8906z"/>
  <path d="m833.96 623.32-0.88672-2.8906 7.2266-2.2109 0.88672 2.8906z"/>
  <path d="m761.7 645.42-0.88672-2.8906 7.2266-2.2109 0.88672 2.8906z"/>
  <path d="m746.36 646.98 7.2266-2.2109 0.88281 2.8906-7.2266 2.2109z"/>
  <path d="m782.47 635.88 0.88672 2.8906-7.2266 2.2109-0.88672-2.8906z"/>
  <path d="m819.64 548.63-3.4531-6.7227 2.6875-1.3828 3.4531 6.7227z"/>
  <path d="m832.63 567.4 3.4531 6.7227-2.6875 1.3828-3.4531-6.7227z"/>
  <path d="m826.55 562.08-3.4531-6.7227 2.6875-1.3828 3.4531 6.7227z"/>
  <path d="m811.9 527.07 3.457 6.7188-2.6875 1.3828-3.457-6.7188z"/>
  <path d="m840.37 588.96-3.4531-6.7227 2.6875-1.3828 3.4531 6.7227z"/>
  <path d="m846.45 594.29 3.457 6.7188-2.6875 1.3828-3.457-6.7188z"/>
  <path d="m738.52 516.58h7.5586v3.0234h-7.5586z"/>
  <path d="m753.64 516.58h7.5586v3.0234h-7.5586z"/>
  <path d="m768.75 516.58h7.5586v3.0234h-7.5586z"/>
  <path d="m783.87 516.58h7.5586v3.0234h-7.5586z"/>
  <path d="m532.37 645.9 6.7227-3.4531 1.3828 2.6875-6.7227 3.4531z"/>
  <path d="m594.21 617.55-6.7227 3.4531-1.3828-2.6875 6.7227-3.4531z"/>
  <path d="m559.26 632.09 6.7227-3.4531 1.3828 2.6875-6.7227 3.4531z"/>
  <path d="m545.78 639.04 6.7227-3.4531 1.3828 2.6875-6.7227 3.4531z"/>
  <path d="m579.42 621.77 1.3828 2.6875-6.7227 3.4531-1.3828-2.6875z"/>
  <path d="m600.94 614.06-1.3828-2.6875 6.7227-3.4531 1.3828 2.6875z"/>
  <path d="m419.73 626.49-7.293-1.9844 0.79297-2.918 7.293 1.9844z"/>
  <path d="m478.07 642.36-7.293-1.9844 0.79297-2.918 7.293 1.9844z"/>
  <path d="m507.26 650.3-7.293-1.9844 0.79297-2.918 7.293 1.9844z"/>
  <path d="m486.17 641.45 7.293 1.9844-0.79297 2.918-7.293-1.9844z"/>
  <path d="m457 633.51 7.293 1.9844-0.79297 2.918-7.293-1.9844z"/>
  <path d="m448.9 634.43-7.293-1.9844 0.79297-2.918 7.293 1.9844z"/>
  <path d="m427.82 625.57 7.293 1.9844-0.79297 2.918-7.293-1.9844z"/>
  <path d="m405.15 622.53-7.293-1.9844 0.79297-2.918 7.293 1.9844z"/>
  <path d="m399.96 580.97 2.6797 1.4023-3.5039 6.6953-2.6797-1.4023z"/>
  <path d="m406.11 575.68-2.6797-1.4023 3.5039-6.6953 2.6797 1.4023z"/>
  <path d="m417.47 547.48 3.5039-6.6953 2.6797 1.4023-3.5039 6.6953z"/>
  <path d="m392.09 602.45-2.6797-1.4023 3.5039-6.6953 2.6797 1.4023z"/>
  <path d="m424.48 534.09 3.5039-6.6953 2.6797 1.4023-3.5039 6.6953z"/>
  <path d="m413.97 554.19 2.6797 1.4023-3.5039 6.6953-2.6797-1.4023z"/>
  <path d="m449.68 516.58h7.5586v3.0234h-7.5586z"/>
  <path d="m479.9 516.58h7.5586v3.0234h-7.5586z"/>
  <path d="m464.79 516.58h7.5586v3.0234h-7.5586z"/>
  <path d="m495.02 516.58h7.5586v3.0234h-7.5586z"/>
  <path d="m712.34 663.55 6.4023-4.0156 1.6055 2.5625-6.4023 4.0156z"/>
  <path d="m699.53 671.57 6.4023-4.0156 1.6055 2.5625-6.4023 4.0156z"/>
  <path d="m680.3 683.66 1.6094 2.5586-6.3984 4.0195-1.6094-2.5586z"/>
  <path d="m686.71 679.58 6.4023-4.0117 1.6055 2.5625-6.4023 4.0117z"/>
  <path d="m565.42 683.94 6 4.5898-1.8359 2.4023-6-4.5898z"/>
  <path d="m535.4 661-5.5312-4.2422c0.62109-1.2031 1.0586-2.5078 1.0586-3.9453 0-4.8125-3.8906-8.707-8.707-8.707-4.8125 0-8.707 3.8984-8.707 8.707 0 4.8047 3.8984 8.7148 8.707 8.7148 2.2656 0 4.293-0.92188 5.8398-2.3438l5.5 4.2109z"/>
  <path d="m541.41 665.57 6 4.5898-1.8359 2.4023-6-4.5898z"/>
  <path d="m553.42 674.79 6 4.5938-1.8359 2.4023-6-4.5938z"/>
  <path d="m606.58 717.26 5.7773 4.8711-1.9492 2.3125-5.7773-4.8711z"/>
  <path d="m595.04 707.51 5.7773 4.8711-1.9492 2.3125-5.7773-4.8711z"/>
  <path d="m628.87 722.13 5.7773-4.8711 1.9492 2.3125-5.7773 4.8711z"/>
  <path d="m646.19 707.5 1.9492 2.3125-5.7773 4.8711-1.9492-2.3125z"/>
  <path d="m620.94 697.43h7.5586v3.0234h-7.5586z"/>
  <path d="m636.06 697.43h7.5586v3.0234h-7.5586z"/>
  <path d="m605.83 697.43h7.5586v3.0234h-7.5586z"/>
  <path d="m602.47 644.03 2.8125 1.1055-2.7695 7.0312-2.8125-1.1055z"/>
  <path d="m596.95 658.09 2.8125 1.1055-2.7695 7.0312-2.8125-1.1055z"/>
  <path d="m613.52 615.89 2.8125 1.1055-2.7695 7.0312-2.8125-1.1055z"/>
  <path d="m608 629.96 2.8125 1.1055-2.7695 7.0312-2.8125-1.1055z"/>
  <path d="m591.41 672.16 2.8125 1.1055-2.7695 7.0312-2.8125-1.1055z"/>
  <path d="m638.54 643.97 2.7852 7.0234-2.8086 1.1133-2.7852-7.0234z"/>
  <path d="m624.56 616.99 2.8086-1.1133 2.7852 7.0234-2.8086 1.1133z"/>
  <path d="m649.69 672.07 2.7852 7.0234-2.8086 1.1133-2.7852-7.0234z"/>
  <path d="m632.97 629.92 2.7852 7.0234-2.8086 1.1133-2.7852-7.0234z"/>
  <path d="m646.95 665.05-2.8086 1.1133-2.7852-7.0234 2.8086-1.1133z"/>
  <path d="m682.87 737.36 3.8086 6.5273-2.6094 1.5234-3.8086-6.5273z"/>
  <path d="m668.84 719.3-3.8086-6.5273 2.6094-1.5234 3.8086 6.5273z"/>
  <path d="m705.79 776.5 3.8125 6.5273-2.6094 1.5234-3.8125-6.5273z"/>
  <path d="m698.11 763.46 3.8086 6.5273-2.6094 1.5234-3.8086-6.5273z"/>
  <path d="m713.34 789.57 3.8086 6.5273-2.6094 1.5234-3.8086-6.5273z"/>
  <path d="m694.3 756.95-2.6133 1.5195-3.8008-6.5312 2.6133-1.5195z"/>
  <path d="m675.26 724.3 3.8086 6.5273-2.6094 1.5234-3.8086-6.5273z"/>
  <path d="m738.68 808.4-0.64844-2.9531 7.3789-1.625 0.64844 2.9531z"/>
  <path d="m753.45 805.16-0.64844-2.9531 7.3789-1.625 0.64844 2.9531z"/>
  <path d="m768.21 801.94-0.64844-2.9531 7.3789-1.625 0.64844 2.9531z"/>
  <path d="m782.97 798.71-0.64844-2.9531 7.3789-1.625 0.64844 2.9531z"/>
  <path d="m797.73 795.47-0.64844-2.9531 7.3789-1.625 0.64844 2.9531z"/>
  <path d="m789 733.1-4.4492-6.1094 2.4414-1.7812 4.4492 6.1094z"/>
  <path d="m795.86 737.41 4.4492 6.1094-2.4414 1.7812-4.4492-6.1094z"/>
  <path d="m806.81 757.54-4.4492-6.1094 2.4414-1.7812 4.4492 6.1094z"/>
  <path d="m762.3 696.46-4.4492-6.1094 2.4414-1.7812 4.4492 6.1094z"/>
  <path d="m751.35 676.35 4.4492 6.1094-2.4414 1.7812-4.4492-6.1094z"/>
  <path d="m769.16 700.77 4.4492 6.1094-2.4414 1.7812-4.4492-6.1094z"/>
  <path d="m744.5 672.02-4.4492-6.1094 2.4414-1.7812 4.4492 6.1094z"/>
  <path d="m815.74 769.74-4.4531-6.1055 2.4414-1.7812 4.4531 6.1055z"/>
  <path d="m775.62 714.77 2.4453-1.7773 4.4492 6.1094-2.4453 1.7773z"/>
  <path d="m517.3 758.52 3.0195 0.097656-0.24219 7.5547-3.0195-0.097657z"/>
  <path d="m519.13 796.36-3.0195-0.097656 0.24219-7.5547 3.0195 0.097657z"/>
  <path d="m517.78 743.41 3.0195 0.097656-0.24219 7.5547-3.0195-0.097656z"/>
  <path d="m516.8 773.62 3.0195 0.097656-0.24219 7.5547-3.0195-0.097656z"/>
  <path d="m518.27 728.3 3.0195 0.097657-0.24219 7.5547-3.0195-0.097656z"/>
  <path d="m520.21 667.88 3.0195 0.097657-0.24219 7.5547-3.0195-0.097656z"/>
  <path d="m519.73 682.99 3.0195 0.097657-0.24219 7.5547-3.0195-0.097656z"/>
  <path d="m518.75 713.2 3.0195 0.097657-0.24219 7.5547-3.0195-0.097656z"/>
  <path d="m519.24 698.1 3.0195 0.097656-0.24219 7.5547-3.0195-0.097656z"/>
  <path d="m724.5 773.5 3.0195 0.15625-0.38672 7.5469-3.0195-0.15625z"/>
  <path d="m726.88 728.21 3.0195 0.15625-0.38672 7.5469-3.0195-0.15625z"/>
  <path d="m725.29 758.41 3.0195 0.15625-0.38672 7.5469-3.0195-0.15625z"/>
  <path d="m726.08 743.32 3.0195 0.15625-0.38672 7.5469-3.0195-0.15625z"/>
  <path d="m726.34 796.26-3.0195-0.15625 0.38672-7.5469 3.0195 0.15625z"/>
  <path d="m732.67 675.51-3.0195-0.15625 0.38672-7.5469 3.0195 0.15625z"/>
  <path d="m727.67 713.12 3.0195 0.15625-0.38672 7.5469-3.0195-0.15625z"/>
  <path d="m729.25 682.94 3.0195 0.15625-0.38672 7.5469-3.0195-0.15625z"/>
  <path d="m728.45 698.03 3.0195 0.15625-0.38672 7.5469-3.0195-0.15625z"/>
  <path d="m549.35 758.31-2.6055-1.5352 3.8359-6.5117 2.6055 1.5352z"/>
  <path d="m535.25 776.4 2.6055 1.5352-3.8359 6.5117-2.6055-1.5352z"/>
  <path d="m530.2 790.89-3.8281 6.5156-2.6055-1.5312 3.8281-6.5156z"/>
  <path d="m564.65 732.31-2.6094-1.5273 3.8242-6.5195 2.6094 1.5273z"/>
  <path d="m558.24 737.24 2.6094 1.5273-3.8242 6.5195-2.6094-1.5273z"/>
  <path d="m573.54 711.18 2.6094 1.5273-3.8242 6.5195-2.6094-1.5273z"/>
  <path d="m545.53 764.88-3.8281 6.5156-2.6055-1.5312 3.8281-6.5156z"/>
  <path d="m443.09 795.19-7.375-1.6445 0.66016-2.9492 7.375 1.6445z"/>
  <path d="m487.33 805.05-7.375-1.6406 0.65625-2.9492 7.375 1.6406z"/>
  <path d="m502.09 808.34-7.375-1.6406 0.65625-2.9492 7.375 1.6406z"/>
  <path d="m472.58 801.77-7.375-1.6406 0.65625-2.9492 7.375 1.6406z"/>
  <path d="m457.84 798.47-7.375-1.6445 0.66016-2.9492 7.375 1.6445z"/>
  <path d="m500 683.43-2.3789-1.875 4.6797-5.9336 2.3789 1.875z"/>
  <path d="m471.9 719.02-2.3789-1.875 4.6797-5.9336 2.3789 1.875z"/>
  <path d="m488.27 693.39 4.6836-5.9336 2.3789 1.8789-4.6836 5.9336z"/>
  <path d="m483.58 699.3 2.3789 1.875-4.6797 5.9336-2.3789-1.875z"/>
  <path d="m511.68 663.71 2.3789 1.875-4.6797 5.9336-2.3789-1.875z"/>
  <path d="m460.17 728.98 4.6836-5.9336 2.3789 1.8789-4.6836 5.9336z"/>
  <path d="m432.08 764.57 4.6836-5.9336 2.3789 1.8789-4.6836 5.9336z"/>
  <path d="m425.08 778.34-2.3789-1.875 4.6797-5.9336 2.3789 1.875z"/>
  <path d="m453.17 742.75-2.3789-1.875 4.6797-5.9336 2.3789 1.875z"/>
  <path d="m443.81 754.61-2.3789-1.875 4.6797-5.9336 2.3789 1.875z"/>
  <path d="m584.54 844.38 6.668 3.5586-1.4219 2.668-6.668-3.5586z"/>
  <path d="m563.12 836.38-6.668-3.5547 1.4219-2.668 6.668 3.5547z"/>
  <path d="m549.79 829.26-6.668-3.5547 1.4219-2.668 6.668 3.5547z"/>
  <path d="m597.89 851.49 6.668 3.5547-1.4219 2.668-6.668-3.5547z"/>
  <path d="m576.46 843.48-6.668-3.5586 1.4219-2.668 6.668 3.5586z"/>
  <path d="m536.46 822.15-6.668-3.5586 1.4219-2.668 6.668 3.5586z"/>
  <path d="m724.62 828.97 3.0078-0.31641 0.79297 7.5156-3.0078 0.31641z"/>
  <path d="m673.26 835.54 6.668-3.5586 1.4219 2.668-6.668 3.5586z"/>
  <path d="m726.21 844 3.0078-0.31641 0.79297 7.5156-3.0078 0.31641z"/>
  <path d="m701.35 823.96-1.4258-2.6641 6.6641-3.5625 1.4258 2.6641z"/>
  <path d="m728.55 866.55-0.79688-7.5156 3.0078-0.32031 0.79688 7.5156z"/>
  <path d="m686.58 828.44 6.668-3.5547 1.4219 2.668-6.668 3.5547z"/>
  <path d="m646.57 849.77 6.668-3.5547 1.4219 2.668-6.668 3.5547z"/>
  <path d="m633.23 856.88 6.668-3.5547 1.4219 2.668-6.668 3.5547z"/>
  <path d="m659.92 842.65 6.668-3.5586 1.4219 2.668-6.668 3.5586z"/>
  <path d="m516.12 832.84-3.0039-0.33984 0.84766-7.5078 3.0039 0.33984z"/>
  <path d="m512.76 862.88-3.0039-0.33984 0.84766-7.5078 3.0039 0.33984z"/>
  <path d="m514.44 847.86-3.0039-0.33984 0.84766-7.5078 3.0039 0.33984z"/>
  <path d="m511.07 877.9-3.0039-0.33984 0.84766-7.5078 3.0039 0.33984z"/>
  <path d="m598.77 871.45-0.62109-2.957 7.3984-1.5508 0.62109 2.957z"/>
  <path d="m569.18 877.64-0.62109-2.957 7.3984-1.5508 0.62109 2.957z"/>
  <path d="m524.8 886.93-0.62109-2.957 7.3984-1.5508 0.62109 2.957z"/>
  <path d="m583.98 874.54-0.62109-2.957 7.3984-1.5508 0.62109 2.957z"/>
  <path d="m554.39 880.73-0.62109-2.957 7.3984-1.5508 0.62109 2.957z"/>
  <path d="m539.59 883.83-0.62109-2.957 7.3984-1.5508 0.62109 2.957z"/>
  <path d="m686.75 880.18-7.4062-1.5 0.60156-2.9609 7.4062 1.5z"/>
  <path d="m672.02 877.21-7.4062-1.5 0.59766-2.9609 7.4062 1.5z"/>
  <path d="m657.17 874.16-7.4062-1.4961 0.59766-2.9648 7.4062 1.4961z"/>
  <path d="m642.3 871.19-7.4062-1.5 0.60156-2.9609 7.4062 1.5z"/>
  <path d="m701.65 883.21-7.4062-1.5 0.59766-2.9609 7.4062 1.5z"/>
  <path d="m716.46 886.21-7.4062-1.5 0.59766-2.9609 7.4062 1.5z"/>
  <path d="m544.28 491.73-5.2031 5.4805-2.1914-2.082 5.2031-5.4805z"/>
  <path d="m531.66 500.63 2.1914 2.082-5.2031 5.4805-2.1914-2.082z"/>
  <path d="m549.47 486.23-2.1914-2.082 5.2031-5.4805 2.1914 2.082z"/>
  <path d="m702.12 496.57-5.0312-5.6406 2.2539-2.0117 5.0312 5.6406z"/>
  <path d="m692.08 485.26-5.0352-5.6367 2.2539-2.0156 5.0352 5.6367z"/>
  <path d="m709.44 500.19 5.0352 5.6367-2.2539 2.0156-5.0352-5.6367z"/>
  <path d="m576.18 470.31h7.5586v3.0234h-7.5586z"/>
  <path d="m636.64 470.31h7.5586v3.0234h-7.5586z"/>
  <path d="m606.41 470.31h7.5586v3.0234h-7.5586z"/>
  <path d="m621.52 470.31h7.5586v3.0234h-7.5586z"/>
  <path d="m591.3 470.31h7.5586v3.0234h-7.5586z"/>
  <path d="m651.75 470.31h7.5586v3.0234h-7.5586z"/>
  <path d="m709.97 459.94-1.3203-2.7188 6.7969-3.3047 1.3203 2.7188z"/>
  <path d="m750.74 440.11-1.3203-2.7188 6.7969-3.3047 1.3203 2.7188z"/>
  <path d="m777.92 426.88-1.3203-2.7188 6.7969-3.3047 1.3203 2.7188z"/>
  <path d="m791.51 420.27-1.3203-2.7188 6.7969-3.3047 1.3203 2.7188z"/>
  <path d="m696.38 466.56-1.3203-2.7188 6.7969-3.3047 1.3203 2.7188z"/>
  <path d="m742.59 440.73 1.3203 2.7188-6.7969 3.3047-1.3203-2.7188z"/>
  <path d="m764.33 433.5-1.3203-2.7188 6.7969-3.3047 1.3203 2.7188z"/>
  <path d="m825.46 403.75-6.7969 3.3086-1.3242-2.7188 6.7969-3.3086z"/>
  <path d="m805.1 413.66-1.3203-2.7188 6.7969-3.3047 1.3203 2.7188z"/>
  <path d="m729 447.34 1.3203 2.7188-6.7969 3.3047-1.3203-2.7188z"/>
  <path d="m824.21 452.63 2.8867 0.89453-2.2344 7.2188-2.8867-0.89453z"/>
  <path d="m817.51 474.31 2.2227-7.2227 2.8906 0.89062-2.2227 7.2227z"/>
  <path d="m837.55 409.29 2.8867 0.89453-2.2344 7.2188-2.8867-0.89453z"/>
  <path d="m826.45 445.41 2.2266-7.2227 2.8906 0.89062-2.2266 7.2227z"/>
  <path d="m811.5 504.12-2.8867-0.89453 2.2344-7.2188 2.8867 0.89453z"/>
  <path d="m833.11 423.75 2.8867 0.89453-2.2344 7.2188-2.8867-0.89453z"/>
  <path d="m815.31 481.52 2.8867 0.89453-2.2344 7.2188-2.8867-0.89453z"/>
  <path d="m410.86 430.54-2.9102 0.84375-2.1016-7.2578 2.9102-0.84375z"/>
  <path d="m419.25 459.58-2.9102 0.84375-2.1016-7.2578 2.9102-0.84375z"/>
  <path d="m420.52 474.97-2.0977-7.2617 2.9102-0.83984 2.0977 7.2617z"/>
  <path d="m431.83 503.15-2.9102 0.84375-2.1016-7.2578 2.9102-0.84375z"/>
  <path d="m424.71 489.47-2.1016-7.2578 2.9023-0.83984 2.1016 7.2578z"/>
  <path d="m412.95 437.82 2.0938 7.2617-2.9102 0.83984-2.0938-7.2617z"/>
  <path d="m404.57 408.76 2.0977 7.2617-2.9102 0.83984-2.0977-7.2617z"/>
  <path d="m479.17 432.84-6.7695-3.3594 1.3438-2.707 6.7695 3.3594z"/>
  <path d="m485.94 436.21 1.3438-2.707 6.7695 3.3594-1.3438 2.707z"/>
  <path d="m452.1 419.4-6.7695-3.3633 1.3438-2.707 6.7695 3.3633z"/>
  <path d="m425.02 405.95-6.7695-3.3594 1.3438-2.707 6.7695 3.3594z"/>
  <path d="m465.64 426.12-6.7695-3.3633 1.3438-2.707 6.7695 3.3633z"/>
  <path d="m546.86 466.45-6.7695-3.3633 1.3438-2.707 6.7695 3.3633z"/>
  <path d="m519.79 453-6.7695-3.3633 1.3438-2.707 6.7695 3.3633z"/>
  <path d="m506.25 446.29-6.7695-3.3594 1.3438-2.707 6.7695 3.3594z"/>
  <path d="m438.57 412.68-6.7695-3.3633 1.3438-2.707 6.7695 3.3633z"/>
  <path d="m527.89 453.68 6.7695 3.3594-1.3438 2.707-6.7695-3.3594z"/>
  <path d="m555.98 449.68 2.1719 7.2383-2.8945 0.86719-2.1719-7.2383z"/>
  <path d="m518.39 334.75 2.8945-0.87109 2.1797 7.2383-2.8945 0.87109z"/>
  <path d="m540.09 407.14 2.8945-0.87109 2.1797 7.2383-2.8945 0.87109z"/>
  <path d="m540.8 398.98-2.8945 0.87109-2.1797-7.2383 2.8945-0.87109z"/>
  <path d="m529.25 370.92-2.1719-7.2383 2.8945-0.86719 2.1719 7.2383z"/>
  <path d="m525.61 348.34 2.1719 7.2383-2.8945 0.86719-2.1719-7.2383z"/>
  <path d="m536.46 384.51-2.8945 0.87109-2.1797-7.2383 2.8945-0.87109z"/>
  <path d="m553.83 442.41-2.8945 0.87109-2.1797-7.2383 2.8945-0.87109z"/>
  <path d="m549.49 427.94-2.8945 0.87109-2.1797-7.2383 2.8945-0.87109z"/>
  <path d="m690.98 435.06 2.9062 0.82812-2.0664 7.2695-2.9062-0.82812z"/>
  <path d="m702.12 406.81-2.0586 7.2695-2.9102-0.82422 2.0586-7.2695z"/>
  <path d="m703.35 391.43 2.9062 0.82812-2.0664 7.2695-2.9062-0.82812z"/>
  <path d="m715.72 347.81 2.9062 0.82812-2.0664 7.2695-2.9062-0.82812z"/>
  <path d="m695.93 428.63-2.9062-0.82812 2.0664-7.2695 2.9062 0.82812z"/>
  <path d="m686.86 449.59 2.9062 0.82812-2.0664 7.2695-2.9062-0.82812z"/>
  <path d="m708.29 385.01-2.9062-0.82812 2.0664-7.2695 2.9062 0.82813z"/>
  <path d="m712.42 370.47-2.9062-0.82812 2.0664-7.2695 2.9062 0.82812z"/>
  <path d="m614.64 323.89h7.5586v3.0234h-7.5586z"/>
  <path d="m584.41 323.89h7.5586v3.0234h-7.5586z"/>
  <path d="m675.1 323.89h7.5586v3.0234h-7.5586z"/>
  <path d="m644.87 323.89h7.5586v3.0234h-7.5586z"/>
  <path d="m659.98 323.89h7.5586v3.0234h-7.5586z"/>
  <path d="m629.75 323.89h7.5586v3.0234h-7.5586z"/>
  <path d="m554.18 323.89h7.5586v3.0234h-7.5586z"/>
  <path d="m539.07 323.89h7.5586v3.0234h-7.5586z"/>
  <path d="m690.21 323.89h7.5586v3.0234h-7.5586z"/>
  <path d="m705.32 323.89h7.5586v3.0234h-7.5586z"/>
  <path d="m599.53 323.89h7.5586v3.0234h-7.5586z"/>
  <path d="m569.3 323.89h7.5586v3.0234h-7.5586z"/>
  <path d="m450.75 361.48 1.4961 2.625-6.5664 3.7422-1.4961-2.625z"/>
  <path d="m437.61 368.95 1.4961 2.625-6.5664 3.7422-1.4961-2.625z"/>
  <path d="m424.48 376.44 1.4961 2.625-6.5664 3.7422-1.4961-2.625z"/>
  <path d="m503.29 331.57 1.4961 2.625-6.5664 3.7422-1.4961-2.625z"/>
  <path d="m463.88 354 1.4961 2.625-6.5664 3.7422-1.4961-2.625z"/>
  <path d="m490.16 339.04 1.4961 2.625-6.5664 3.7422-1.4961-2.625z"/>
  <path d="m477.02 346.52 1.4961 2.625-6.5664 3.7422-1.4961-2.625z"/>
  <path d="m817.36 374.95 6.6562 3.5742-1.4297 2.6641-6.6562-3.5742z"/>
  <path d="m764.09 346.35 6.6562 3.5742-1.4297 2.6641-6.6562-3.5742z"/>
  <path d="m777.41 353.5 6.6562 3.5742-1.4297 2.6641-6.6562-3.5742z"/>
  <path d="m737.46 332.04 6.6562 3.5742-1.4297 2.6641-6.6562-3.5742z"/>
  <path d="m804.04 367.8 6.6562 3.5742-1.4297 2.6641-6.6562-3.5742z"/>
  <path d="m790.73 360.65 6.6562 3.5742-1.4297 2.6641-6.6562-3.5742z"/>
  <path d="m750.77 339.2 6.6562 3.5742-1.4297 2.6641-6.6562-3.5742z"/>
 </g>
</svg>
